{
    "asset": {
        "generator": "FBX2glTF v0.9.7",
        "version": "2.0"
    },
    "scene": 0,
    "buffers": [
        {
            "byteLength": 476836,
            "uri": "buffer.bin"
        }
    ],
    "bufferViews": [
        {
            "buffer": 0,
            "byteLength": 13668,
            "byteOffset": 0,
            "target": 34963
        },
        {
            "buffer": 0,
            "byteLength": 66432,
            "byteOffset": 13668,
            "target": 34962
        },
        {
            "buffer": 0,
            "byteLength": 66432,
            "byteOffset": 80100,
            "target": 34962
        },
        {
            "buffer": 0,
            "byteLength": 44288,
            "byteOffset": 146532,
            "target": 34962
        },
        {
            "buffer": 0,
            "byteLength": 4032,
            "byteOffset": 190820,
            "target": 34963
        },
        {
            "buffer": 0,
            "byteLength": 23136,
            "byteOffset": 194852,
            "target": 34962
        },
        {
            "buffer": 0,
            "byteLength": 23136,
            "byteOffset": 217988,
            "target": 34962
        },
        {
            "buffer": 0,
            "byteLength": 15424,
            "byteOffset": 241124,
            "target": 34962
        },
        {
            "buffer": 0,
            "byteLength": 17280,
            "byteOffset": 256548,
            "target": 34963
        },
        {
            "buffer": 0,
            "byteLength": 76128,
            "byteOffset": 273828,
            "target": 34962
        },
        {
            "buffer": 0,
            "byteLength": 76128,
            "byteOffset": 349956,
            "target": 34962
        },
        {
            "buffer": 0,
            "byteLength": 50752,
            "byteOffset": 426084,
            "target": 34962
        }
    ],
    "scenes": [
        {
            "name": "Root Scene",
            "nodes": [
                0
            ]
        }
    ],
    "accessors": [
        {
            "componentType": 5123,
            "type": "SCALAR",
            "count": 6834,
            "bufferView": 0,
            "byteOffset": 0
        },
        {
            "componentType": 5126,
            "type": "VEC3",
            "count": 5536,
            "bufferView": 1,
            "byteOffset": 0,
            "min": [
                -11.4443674087524,
                -4.94574499130249,
                -3.15343928337097
            ],
            "max": [
                11.4443674087524,
                0.0993162542581558,
                3.15343928337097
            ]
        },
        {
            "componentType": 5126,
            "type": "VEC3",
            "count": 5536,
            "bufferView": 2,
            "byteOffset": 0
        },
        {
            "componentType": 5126,
            "type": "VEC2",
            "count": 5536,
            "bufferView": 3,
            "byteOffset": 0
        },
        {
            "componentType": 5123,
            "type": "SCALAR",
            "count": 2016,
            "bufferView": 4,
            "byteOffset": 0
        },
        {
            "componentType": 5126,
            "type": "VEC3",
            "count": 1928,
            "bufferView": 5,
            "byteOffset": 0,
            "min": [
                1.2795946598053,
                -4.84455013275146,
                -1.90221750736237
            ],
            "max": [
                1.42259156703949,
                -4.67617988586426,
                -1.6857123374939
            ]
        },
        {
            "componentType": 5126,
            "type": "VEC3",
            "count": 1928,
            "bufferView": 6,
            "byteOffset": 0
        },
        {
            "componentType": 5126,
            "type": "VEC2",
            "count": 1928,
            "bufferView": 7,
            "byteOffset": 0
        },
        {
            "componentType": 5123,
            "type": "SCALAR",
            "count": 8640,
            "bufferView": 8,
            "byteOffset": 0
        },
        {
            "componentType": 5126,
            "type": "VEC3",
            "count": 6344,
            "bufferView": 9,
            "byteOffset": 0,
            "min": [
                -1.06138300895691,
                -4.84255218505859,
                -1.85902643203735
            ],
            "max": [
                1.07106804847717,
                -4.73626375198364,
                -1.71282768249512
            ]
        },
        {
            "componentType": 5126,
            "type": "VEC3",
            "count": 6344,
            "bufferView": 10,
            "byteOffset": 0
        },
        {
            "componentType": 5126,
            "type": "VEC2",
            "count": 6344,
            "bufferView": 11,
            "byteOffset": 0
        }
    ],
    "samplers": [
        {}
    ],
    "materials": [
        {
            "name": "3DXY_Material_1",
            "alphaMode": "OPAQUE",
            "extras": {
                "fromFBX": {
                    "shadingModel": "Phong",
                    "isTruePBR": false
                }
            },
            "pbrMetallicRoughness": {
                "baseColorFactor": [
                    0.86274516582489,
                    0.86274516582489,
                    0.86274516582489,
                    1.0
                ],
                "metallicFactor": 0.400000005960464,
                "roughnessFactor": 0.0543290637433529
            }
        },
        {
            "name": "3DXY_Material_2",
            "alphaMode": "OPAQUE",
            "extras": {
                "fromFBX": {
                    "shadingModel": "Phong",
                    "isTruePBR": false
                }
            },
            "pbrMetallicRoughness": {
                "baseColorFactor": [
                    0.282352954149246,
                    0.282352954149246,
                    0.282352954149246,
                    1.0
                ],
                "metallicFactor": 0.400000005960464,
                "roughnessFactor": 0.0441510789096355
            }
        },
        {
            "name": "3DXY_Material_3",
            "alphaMode": "OPAQUE",
            "extras": {
                "fromFBX": {
                    "shadingModel": "Lambert",
                    "isTruePBR": false
                }
            },
            "pbrMetallicRoughness": {
                "baseColorFactor": [
                    0.317647069692612,
                    0.192156881093979,
                    0.192156881093979,
                    1.0
                ],
                "metallicFactor": 0.200000002980232,
                "roughnessFactor": 0.800000011920929
            }
        }
    ],
    "meshes": [
        {
            "name": "3DXY_geometry_001",
            "primitives": [
                {
                    "material": 0,
                    "mode": 4,
                    "attributes": {
                        "NORMAL": 2,
                        "POSITION": 1,
                        "TEXCOORD_0": 3
                    },
                    "indices": 0
                }
            ]
        },
        {
            "name": "3DXY_geometry_002",
            "primitives": [
                {
                    "material": 1,
                    "mode": 4,
                    "attributes": {
                        "NORMAL": 6,
                        "POSITION": 5,
                        "TEXCOORD_0": 7
                    },
                    "indices": 4
                }
            ]
        },
        {
            "name": "3DXY_geometry_003",
            "primitives": [
                {
                    "material": 2,
                    "mode": 4,
                    "attributes": {
                        "NORMAL": 10,
                        "POSITION": 9,
                        "TEXCOORD_0": 11
                    },
                    "indices": 8
                }
            ]
        }
    ],
    "cameras": [
        {
            "name": "",
            "type": "perspective",
            "perspective": {
                "znear": 9.99999974737875e-05,
                "zfar": 1000.0,
                "aspectRatio": 1.77777779102325,
                "yfov": 0.548334896564484
            }
        }
    ],
    "nodes": [
        {
            "name": "RootNode",
            "translation": [
                0.0,
                0.0,
                0.0
            ],
            "rotation": [
                0.0,
                0.0,
                0.0,
                1.0
            ],
            "scale": [
                1.0,
                1.0,
                1.0
            ],
            "children": [
                1,
                2
            ]
        },
        {
            "name": "Cinema4D_编辑器",
            "translation": [
                1.85295104980469,
                1.24072766304016,
                1.85295104980469
            ],
            "rotation": [
                -0.156061232089996,
                0.377184212207794,
                0.0646426752209663,
                0.910603225231171
            ],
            "scale": [
                0.100000001490116,
                0.100000001490116,
                0.100000001490116
            ],
            "camera": 0
        },
        {
            "name": "3DXY_group_001",
            "translation": [
                0.0,
                0.315343916416168,
                1.93092459613785e-17
            ],
            "rotation": [
                -0.70710676908493,
                -0.0,
                0.0,
                0.70710676908493
            ],
            "scale": [
                0.100000001490116,
                0.100000001490116,
                0.100000001490116
            ],
            "children": [
                3,
                4,
                5
            ]
        },
        {
            "name": "3DXY_geometry_001",
            "translation": [
                0.0,
                2.42321443557739,
                -1.13686835180517e-15
            ],
            "rotation": [
                2.46519032881566e-32,
                0.0,
                0.0,
                1.0
            ],
            "scale": [
                1.0,
                1.0,
                1.0
            ],
            "mesh": 0
        },
        {
            "name": "3DXY_geometry_002",
            "translation": [
                0.0,
                2.42321395874023,
                1.52587887214395e-07
            ],
            "rotation": [
                2.46519032881566e-32,
                0.0,
                0.0,
                1.0
            ],
            "scale": [
                1.0,
                1.0,
                1.0
            ],
            "mesh": 1
        },
        {
            "name": "3DXY_geometry_003",
            "translation": [
                0.0,
                2.42321443557739,
                1.52587887214395e-07
            ],
            "rotation": [
                2.46519032881566e-32,
                0.0,
                0.0,
                1.0
            ],
            "scale": [
                1.0,
                1.0,
                1.0
            ],
            "mesh": 2
        }
    ]
}